<svg xmlns="http://www.w3.org/2000/svg" viewBox="0 0 11.43 5.67"><defs><style>.cls-1{fill:#444;}</style></defs><title>sanguineAsset 7</title><g id="Layer_2" data-name="Layer 2"><g id="Layer_1-2" data-name="Layer 1"><path class="cls-1" d="M11.16.55H.27A.28.28,0,0,1,0,.27.27.27,0,0,1,.27,0H11.16a.27.27,0,0,1,.27.27A.28.28,0,0,1,11.16.55Z"/><path class="cls-1" d="M11.13,3H.29A.28.28,0,0,1,0,2.75a.29.29,0,0,1,.28-.28H11.13a.28.28,0,0,1,.27.28A.27.27,0,0,1,11.13,3Z"/><path class="cls-1" d="M8.15,5.67H.29A.29.29,0,0,1,0,5.39a.28.28,0,0,1,.28-.27H8.15a.27.27,0,0,1,.27.27A.28.28,0,0,1,8.15,5.67Z"/></g></g></svg>